<?xml version="1.0" encoding="UTF-8"?>
<svg id="Livello_2" data-name="Livello 2" xmlns="http://www.w3.org/2000/svg" viewBox="0 0 30.55 26.98">
  <g id="Livello_1-2" data-name="Livello 1">
    <g>
      <path d="M23.59,21.63l-2.21-3.83c-1.34,1.92-3.58,3.18-6.11,3.18-2.7,0-5.07-1.44-6.38-3.59-.25-.39-.45-.81-.61-1.25-.16-.4-.28-.82-.36-1.25h1.65l-1.64-2.84-3.14-5.45-2.85,4.94-1.94,3.35h1.86c.05.42.11.84.19,1.25.08.42.19.84.32,1.25,1.67,5.54,6.82,9.59,12.9,9.59,3.84,0,7.32-1.61,9.77-4.21-.6-.18-1.13-.58-1.45-1.14Z"/>
      <path d="M28.69,12.09c-.05-.42-.11-.84-.19-1.25-.09-.42-.19-.84-.32-1.25C26.51,4.05,21.35,0,15.27,0c-.23,0-.46.01-.69.02-.24.01-.48.03-.72.06-.37.03-.73.09-1.09.16-.09.01-.18.03-.27.05-.24.05-.48.1-.72.17-.17.05-.34.09-.51.15-.21.06-.42.13-.63.21-.18.07-.36.13-.53.21-.23.09-.46.19-.68.3-.2.1-.39.2-.58.3-.19.1-.38.21-.57.33-.18.11-.36.23-.54.35-.2.13-.39.27-.58.41-.59.45-1.15.94-1.66,1.49.61.18,1.13.58,1.45,1.14l2.21,3.83c.48-.69,1.08-1.29,1.76-1.77.11-.08.22-.16.34-.23.14-.1.28-.18.43-.26.01,0,.02-.01.03-.02.17-.09.35-.18.54-.26.28-.13.56-.23.86-.32.16-.05.33-.1.51-.13.12-.04.24-.06.36-.07.18-.04.36-.07.54-.08.24-.03.49-.04.74-.04,2.7,0,5.07,1.44,6.38,3.59.25.39.46.81.62,1.25.16.4.28.82.36,1.25h-1.66l1.65,2.85,3.14,5.44,2.85-4.94,1.94-3.35h-1.86Z"/>
    </g>
  </g>
</svg>