<?xml version="1.0" encoding="UTF-8"?>
<svg id="Livello_1" data-name="Livello 1" xmlns="http://www.w3.org/2000/svg" viewBox="0 0 417.73 246.42">
  <defs>
    <style>
      .cls-1 {
        fill: #010101;
      }

      .cls-2 {
        fill: #fbd518;
      }

      .cls-3 {
        fill: #da1364;
      }

      .cls-4 {
        fill: #fff;
      }

      .cls-5 {
        fill: #2e8ccc;
      }
    </style>
  </defs>
  <circle class="cls-5" cx="56.77" cy="56.77" r="56.77"/>
  <rect class="cls-2" x="172.55" y="126.75" width="106.57" height="106.57" transform="translate(61.47 -57.45) rotate(16.75)"/>
  <polygon class="cls-3" points="417.73 7.1 372.28 124.09 292.58 25.8 417.73 7.1"/>
  <g>
    <g>
      <path class="cls-1" d="M74.11,179.77v-113.71h43.25c8.61,0,15.43,1.61,20.27,4.78,4.84,3.18,8.52,7.48,10.93,12.79,2.38,5.24,3.86,11.35,4.39,18.17.52,6.74.79,13.84.79,21.11s-.26,14.37-.79,21.11c-.53,6.82-2.01,12.93-4.39,18.17-2.42,5.32-6.09,9.62-10.93,12.79-4.84,3.17-11.66,4.78-20.27,4.78h-43.25ZM110.01,156.75c2.65,0,4.76-.36,6.28-1.08,1.4-.66,2.51-2.11,3.3-4.33.85-2.4,1.41-5.88,1.66-10.35.26-4.57.39-10.65.39-18.08s-.13-13.51-.39-18.08c-.25-4.46-.81-7.94-1.66-10.35-.79-2.22-1.89-3.67-3.3-4.33-1.52-.71-3.63-1.07-6.28-1.07h-4.75v67.66h4.75Z"/>
      <path class="cls-4" d="M117.36,67.1c8.44,0,15.01,1.54,19.7,4.61,4.69,3.08,8.21,7.19,10.55,12.35,2.35,5.16,3.78,11.1,4.3,17.82.52,6.72.78,13.74.78,21.03s-.26,14.31-.78,21.03c-.52,6.72-1.95,12.66-4.3,17.82-2.34,5.16-5.86,9.28-10.55,12.35-4.69,3.08-11.26,4.61-19.7,4.61h-42.22v-111.64h42.22M104.23,157.78h5.78c2.81,0,5.06-.39,6.72-1.17,1.67-.78,2.94-2.42,3.83-4.92.88-2.5,1.46-6.04,1.72-10.63.26-4.58.39-10.63.39-18.14s-.13-13.55-.39-18.14c-.26-4.59-.84-8.13-1.72-10.63-.89-2.5-2.17-4.14-3.83-4.93-1.67-.78-3.91-1.17-6.72-1.17h-5.78v69.74M117.36,65.02h-44.29v115.78h44.29c8.82,0,15.83-1.67,20.84-4.95,5-3.28,8.81-7.73,11.3-13.23,2.43-5.35,3.94-11.58,4.48-18.52.52-6.76.79-13.89.79-21.19s-.27-14.43-.79-21.19c-.54-6.94-2.05-13.17-4.48-18.52-2.5-5.49-6.3-9.95-11.3-13.23-5.01-3.29-12.02-4.95-20.84-4.95h0ZM106.3,90.12h3.71c2.49,0,4.46.33,5.85.98,1.14.53,2.07,1.79,2.76,3.74.82,2.31,1.36,5.69,1.6,10.06.26,4.55.39,10.61.39,18.02s-.13,13.47-.39,18.02c-.25,4.36-.79,7.75-1.6,10.06-.69,1.95-1.62,3.2-2.76,3.74-1.38.65-3.35.98-5.84.98h-3.71v-65.59h0Z"/>
    </g>
    <g>
      <path class="cls-1" d="M242.13,181.49c-8.21,0-15.07-1.02-20.38-3.04-5.4-2.05-9.68-5.53-12.71-10.35-2.98-4.74-5.06-10.92-6.17-18.38-1.1-7.36-1.65-16.38-1.65-26.81s.66-19.81,1.97-27.23c1.32-7.51,3.61-13.7,6.81-18.38,3.23-4.74,7.55-8.21,12.83-10.31,5.2-2.07,11.7-3.12,19.3-3.12,6.65,0,12.4.86,17.08,2.56,4.72,1.72,8.62,4.2,11.58,7.38,2.96,3.18,5.14,7.05,6.49,11.51,1.33,4.41,2,9.43,2,14.92v8.07h-30.22v-7.29c0-6.15-.59-10.35-1.75-12.48-1.06-1.95-2.76-2.9-5.19-2.9-1.95,0-3.44.48-4.55,1.46-1.13,1-2.02,2.87-2.65,5.56-.66,2.84-1.1,6.74-1.3,11.61-.21,4.88-.31,11.15-.31,18.64s.1,13.77.31,18.64c.2,4.87.64,8.78,1.3,11.61.62,2.69,1.51,4.56,2.64,5.55,1.12.99,2.61,1.46,4.56,1.46,1.55,0,2.78-.36,3.75-1.11.97-.75,1.74-2.07,2.3-3.93.6-2,1.03-4.74,1.29-8.15.26-3.48.39-7.9.39-13.13v-1.04h30.22v9.32c0,7.91-1.08,14.52-3.21,19.63-2.14,5.14-5.03,9.24-8.58,12.2-3.55,2.96-7.67,4.98-12.24,6-4.49,1-9.17,1.51-13.91,1.51Z"/>
      <path class="cls-4" d="M242.13,64.91c6.57,0,12.14.84,16.73,2.5,4.59,1.67,8.31,4.04,11.18,7.11,2.87,3.08,4.95,6.78,6.25,11.1,1.3,4.33,1.95,9.2,1.95,14.62v7.04h-28.14v-6.26c0-6.36-.63-10.68-1.88-12.98-1.25-2.29-3.28-3.44-6.1-3.44-2.19,0-3.94.57-5.24,1.72-1.3,1.15-2.29,3.18-2.97,6.1-.68,2.92-1.12,6.85-1.33,11.81-.21,4.95-.31,11.18-.31,18.68s.1,13.74.31,18.68c.21,4.95.65,8.89,1.33,11.81.68,2.92,1.67,4.95,2.97,6.1,1.3,1.15,3.05,1.72,5.24,1.72,1.77,0,3.23-.44,4.38-1.33,1.15-.89,2.03-2.37,2.66-4.46.63-2.08,1.07-4.87,1.33-8.37.26-3.49.39-7.9.39-13.21h28.14v8.29c0,7.82-1.04,14.23-3.13,19.23-2.09,5-4.85,8.94-8.29,11.81-3.44,2.87-7.38,4.8-11.81,5.79-4.43.99-8.99,1.49-13.68,1.49-8.13,0-14.8-.99-20.01-2.97-5.21-1.98-9.28-5.29-12.2-9.93-2.92-4.64-4.93-10.63-6.02-17.98-1.09-7.35-1.64-16.23-1.64-26.66s.65-19.65,1.96-27.05c1.3-7.4,3.52-13.39,6.64-17.98,3.13-4.59,7.24-7.9,12.35-9.93,5.11-2.03,11.41-3.05,18.92-3.05M242.13,62.83c-7.74,0-14.36,1.08-19.69,3.2-5.47,2.18-9.95,5.77-13.3,10.69-3.28,4.81-5.63,11.13-6.97,18.79-1.32,7.48-1.99,16.7-1.99,27.41s.56,19.55,1.67,26.96c1.13,7.6,3.26,13.92,6.32,18.78,3.15,5.01,7.59,8.63,13.21,10.76,5.43,2.06,12.41,3.11,20.75,3.11,4.81,0,9.56-.52,14.13-1.54,4.74-1.06,9-3.15,12.68-6.22,3.68-3.07,6.67-7.31,8.87-12.6,2.18-5.24,3.29-11.98,3.29-20.03v-10.36h-32.29v2.07c0,5.21-.13,9.6-.39,13.06-.25,3.33-.67,6-1.25,7.92-.49,1.65-1.15,2.8-1.94,3.41-.78.6-1.8.89-3.11.89-1.69,0-2.95-.39-3.87-1.2-.67-.59-1.61-1.93-2.32-5.01-.65-2.77-1.08-6.62-1.28-11.42-.21-4.86-.31-11.12-.31-18.6s.1-13.74.31-18.6c.2-4.81.63-8.65,1.28-11.42.71-3.08,1.66-4.43,2.32-5.01.92-.81,2.18-1.2,3.87-1.2,2.07,0,3.39.73,4.28,2.36.74,1.36,1.62,4.54,1.62,11.98v8.33h32.29v-9.11c0-5.59-.69-10.71-2.04-15.22-1.39-4.61-3.65-8.62-6.72-11.92-3.08-3.3-7.11-5.87-11.99-7.65-4.8-1.74-10.67-2.63-17.44-2.63h0Z"/>
    </g>
    <g>
      <polygon class="cls-1" points="288.47 179.77 288.47 66.06 356.68 66.06 356.68 91.9 319.63 91.9 319.63 108.9 354.34 108.9 354.34 133.8 319.63 133.8 319.63 153.93 358.09 153.93 358.09 179.77 288.47 179.77"/>
      <path class="cls-4" d="M355.65,67.1v23.77h-37.06v19.08h34.71v22.83h-34.71v22.2h38.46v23.77h-67.55v-111.64h66.14M357.72,65.02h-70.28v115.78h71.69v-27.91h-38.46v-18.06h34.71v-26.97h-34.71v-14.93h37.06v-27.91h0Z"/>
    </g>
    <g>
      <path class="cls-1" d="M217.98,57.21c-1.99,0-3.78-.17-5.32-.5-1.63-.35-3.02-.96-4.15-1.84-1.15-.88-2.04-2.06-2.64-3.48-.58-1.38-.88-3.09-.88-5.08v-2.28h11.04v1.88c0,1.64.36,2.28.57,2.51.37.4.82.59,1.43.59.84,0,1.2-.34,1.4-.59.37-.48.56-1.07.56-1.81,0-.87-.25-1.53-.75-2.01-.63-.6-1.43-1.12-2.4-1.55-1.08-.48-2.25-.97-3.47-1.45-1.34-.53-2.6-1.23-3.75-2.07-1.19-.88-2.2-2.05-2.98-3.47-.8-1.44-1.2-3.32-1.2-5.58,0-3.89,1.08-6.92,3.2-9.01,2.12-2.08,5.31-3.14,9.49-3.14s7.51.98,9.51,2.91c2.01,1.94,3.03,5,3.03,9.09v1.04h-10.74v-1.88c0-.87-.17-1.61-.51-2.2-.24-.42-.57-.6-1.1-.6-.86,0-1.18.31-1.35.54-.34.47-.5.98-.5,1.56,0,.87.26,1.52.78,2,.66.6,1.51,1.14,2.53,1.59,1.1.49,2.31.99,3.6,1.5,1.37.55,2.68,1.27,3.87,2.15,1.25.92,2.29,2.13,3.11,3.6.83,1.49,1.25,3.43,1.25,5.76,0,4.1-1.22,7.15-3.63,9.06-2.34,1.85-5.7,2.79-10.01,2.79Z"/>
      <path class="cls-4" d="M218.12,19.36c4.05,0,6.98.87,8.79,2.62,1.81,1.74,2.72,4.52,2.72,8.34h-8.67v-.85c0-1.06-.22-1.97-.65-2.72-.43-.75-1.1-1.12-1.99-1.12-1,0-1.73.32-2.19.97-.47.65-.7,1.37-.7,2.17,0,1.16.37,2.08,1.12,2.77.75.68,1.69,1.27,2.81,1.77,1.13.5,2.34,1.01,3.64,1.52,1.3.52,2.51,1.19,3.64,2.02,1.13.83,2.07,1.92,2.81,3.26.75,1.34,1.12,3.1,1.12,5.25,0,3.79-1.08,6.54-3.24,8.25-2.16,1.71-5.28,2.57-9.37,2.57-1.93,0-3.63-.16-5.11-.48-1.48-.31-2.72-.86-3.74-1.64-1.01-.78-1.79-1.8-2.32-3.06-.53-1.26-.8-2.82-.8-4.68v-1.25h8.97v.85c0,1.53.28,2.6.85,3.21.56.62,1.3.92,2.19.92.96,0,1.7-.33,2.22-1,.51-.66.77-1.48.77-2.44,0-1.16-.36-2.08-1.07-2.76-.71-.68-1.61-1.26-2.69-1.74-1.08-.48-2.25-.97-3.51-1.47-1.26-.5-2.43-1.15-3.51-1.94-1.08-.8-1.98-1.84-2.69-3.14-.71-1.3-1.07-2.99-1.07-5.08,0-3.62.96-6.38,2.89-8.27,1.93-1.89,4.85-2.84,8.77-2.84M218.12,17.29c-4.46,0-7.9,1.16-10.22,3.43-2.33,2.29-3.51,5.57-3.51,9.75,0,2.44.45,4.48,1.33,6.08.86,1.56,1.96,2.84,3.28,3.81,1.22.9,2.56,1.64,3.98,2.2.36.14.72.29,1.08.43h-10.11v3.32c0,2.13.32,3.98.96,5.49.67,1.59,1.67,2.91,2.96,3.9,1.25.97,2.79,1.65,4.57,2.03,1.61.35,3.47.52,5.54.52,4.54,0,8.13-1.01,10.65-3.02,2.67-2.11,4.02-5.43,4.02-9.87,0-2.5-.46-4.61-1.38-6.26-.89-1.6-2.03-2.92-3.4-3.93-1.27-.93-2.64-1.7-4.1-2.27-.43-.17-.85-.34-1.27-.51h9.2v-2.07c0-4.39-1.13-7.7-3.35-9.84-2.2-2.12-5.64-3.2-10.23-3.2h0ZM218.89,30.72c-.35-.22-.67-.46-.94-.71-.21-.19-.45-.5-.45-1.23,0-.36.09-.66.31-.96.08-.11.44-.11.51-.11.09,0,.14.01.15.02,0,0,.02.03.05.07.24.42.37.99.37,1.68v1.25h0ZM218.02,47.98c-.4,0-.55-.12-.66-.25,0,0-.3-.39-.3-1.81v-1.6c.57.31,1.06.65,1.45,1.03.2.19.43.51.43,1.26,0,.66-.19.98-.34,1.17-.06.08-.15.19-.58.19h0Z"/>
    </g>
    <g>
      <polygon class="cls-1" points="237.51 56.67 237.51 28.97 230.64 28.97 230.64 19.03 255.82 19.03 255.82 28.97 248.85 28.97 248.85 56.67 237.51 56.67"/>
      <path class="cls-4" d="M254.79,20.06v7.87h-6.97v27.7h-9.26v-27.7h-6.87v-7.87h23.11M256.86,17.99h-27.26v12.01h6.87v27.7h13.41v-27.7h6.97v-12.01h0Z"/>
    </g>
    <g>
      <path class="cls-1" d="M162.76,179.77v-48.52s0-74.35,0-74.35h-20.96v-20.21h1.04c4.41,0,8.24-.28,11.39-.84,3.1-.55,5.78-1.46,7.96-2.7,2.14-1.21,3.91-2.89,5.27-4.98,1.4-2.15,2.57-4.82,3.47-7.93l.22-.75h22.77v160.29h-31.16Z"/>
      <path class="cls-4" d="M192.88,20.52v110.74h0v47.48h-29.08v-47.48h0V55.87h-20.96v-18.14c4.48,0,8.34-.29,11.57-.86,3.23-.57,6-1.51,8.29-2.82,2.29-1.3,4.17-3.07,5.63-5.32,1.46-2.24,2.66-4.98,3.6-8.21h20.96M194.95,18.45h-24.59l-.43,1.49c-.87,3.02-2,5.59-3.34,7.66-1.27,1.95-2.92,3.51-4.92,4.65-2.08,1.18-4.64,2.05-7.63,2.58-3.1.55-6.87.83-11.21.83h-2.07v22.29h20.96v75.39h0v47.48h33.23V20.52s0-2.07,0-2.07h0Z"/>
    </g>
  </g>
</svg>